<svg xmlns="http://www.w3.org/2000/svg" version="1.1" xmlns:xlink="http://www.w3.org/1999/xlink" xmlns:svgjs="http://svgjs.com/svgjs" width="50" height="39"><svg width="50" height="39" xmlns="http://www.w3.org/2000/svg" version="1.1">
 <!-- Generator: Sketch 53.2 (72643) - https://sketchapp.com -->

 <title>regalia</title>
 <desc>Created with Sketch.</desc>
 <g>
  <polygon points="25,8 40,39 10,39 " fill="#3c3547" fill-opacity="0.26" id="SvgjsPolygon1007"></polygon>
  <polygon points="3,14 25,26.5 47,14 40.85517501831055,39 9.084220886230469,39 " fill="#3b0086" id="SvgjsPolygon1006"></polygon>
  <circle r="2" cy="9" cx="2" fill="#35007a" id="SvgjsCircle1005"></circle>
  <circle r="2" cy="2" cx="25" fill="#35007a" id="SvgjsCircle1004"></circle>
  <circle r="2" cy="9" cx="48" fill="#35007a" id="SvgjsCircle1003"></circle>
  <path fill="#ffffff" stroke="#000000" stroke-opacity="0" d="m22.21747,20.15034l2.78362,-4.34713l2.78362,4.34713l-2.78362,4.34713l-2.78362,-4.34713z" id="SvgjsPath1002"></path>
  <path fill="#ffffff" stroke="#000000" stroke-opacity="0" d="m8.19239,26.36471l2.78362,-4.34713l2.78362,4.34713l-2.78362,4.34713l-2.78362,-4.34713z" id="SvgjsPath1001" transform="rotate(-15, 10.9746, 26.3652)"></path>
  <path fill="#ffffff" stroke="#000000" stroke-opacity="0" d="m36.29957,26.36471l2.78362,-4.34713l2.78362,4.34713l-2.78362,4.34713l-2.78362,-4.34713z" id="SvgjsPath1000" transform="rotate(15, 39.084, 26.3652)"></path>
 </g>
</svg><style>@media (prefers-color-scheme: light) { :root { filter: contrast(1) brightness(0.8); } }
@media (prefers-color-scheme: dark) { :root { filter: contrast(0.8333333333333334) brightness(1.7); } }
</style></svg>