<svg width="50" height="39" xmlns="http://www.w3.org/2000/svg" version="1.1">
 <!-- Generator: Sketch 53.2 (72643) - https://sketchapp.com -->

 <title>regalia</title>
 <desc>Created with Sketch.</desc>
 <g>
  <g id="WiP" fill="none" fill-rule="evenodd">
   <g id="Artboard">
    <g id="Group">
     <polygon id="Rectangle" fill="#808282" points="3,14 25,26.5 47,14 40.85517501831055,39 9.084220886230469,39 "/>
     <polygon id="Triangle" fill-opacity="0.26284" fill="#101A1A" points="25,8 40,39 10,39 "/>
     <circle id="Oval" fill="#5E6363" cx="2" cy="9" r="2"/>
     <circle id="Oval" fill="#5E6363" cx="25" cy="2" r="2"/>
     <circle id="Oval" fill="#5E6363" cx="48" cy="9" r="2"/>
    </g>
   </g>
  </g>
  <path id="svg_5" d="m22.21747,20.15034l2.78362,-4.34713l2.78362,4.34713l-2.78362,4.34713l-2.78362,-4.34713z" stroke-opacity="0" stroke="#000000" fill="#ffffff"/>
  <path transform="rotate(-15, 10.9746, 26.3652)" id="svg_7" d="m8.19239,26.36471l2.78362,-4.34713l2.78362,4.34713l-2.78362,4.34713l-2.78362,-4.34713z" stroke-opacity="0" stroke="#000000" fill="#ffffff"/>
  <path transform="rotate(15, 39.084, 26.3652)" id="svg_9" d="m36.29957,26.36471l2.78362,-4.34713l2.78362,4.34713l-2.78362,4.34713l-2.78362,-4.34713z" stroke-opacity="0" stroke="#000000" fill="#ffffff"/>
 </g>
</svg>